<mxfile host="app.diagrams.net" modified="2024-07-03T04:02:00.205Z" agent="Mozilla/5.0 (Macintosh; Intel Mac OS X 10.15; rv:127.0) Gecko/20100101 Firefox/127.0" etag="1PgT9SRtOJtHxK3duZhY" version="24.6.4" type="dropbox">
  <diagram name="Page-1" id="POPyWMR3nqM8hn_e3dvi">
    <mxGraphModel dx="1370" dy="899" grid="1" gridSize="10" guides="1" tooltips="1" connect="1" arrows="1" fold="1" page="1" pageScale="1" pageWidth="1169" pageHeight="827" math="0" shadow="0">
      <root>
        <mxCell id="0" />
        <mxCell id="1" parent="0" />
        <mxCell id="ayYl6s1Dmx4laIE9Qj4S-21" value="" style="rounded=0;whiteSpace=wrap;html=1;fillColor=none;" vertex="1" parent="1">
          <mxGeometry x="638" y="25" width="480" height="275" as="geometry" />
        </mxCell>
        <mxCell id="ayYl6s1Dmx4laIE9Qj4S-7" value="" style="rounded=0;whiteSpace=wrap;html=1;fillColor=none;" vertex="1" parent="1">
          <mxGeometry x="50" y="248" width="480" height="558" as="geometry" />
        </mxCell>
        <mxCell id="ayYl6s1Dmx4laIE9Qj4S-1" value="&lt;font style=&quot;font-size: 24px;&quot;&gt;Base image: Ubuntu&lt;br&gt;&lt;/font&gt;" style="rounded=0;whiteSpace=wrap;html=1;" vertex="1" parent="1">
          <mxGeometry x="80" y="681" width="420" height="60" as="geometry" />
        </mxCell>
        <mxCell id="ayYl6s1Dmx4laIE9Qj4S-2" value="&lt;font style=&quot;font-size: 24px;&quot;&gt;R, Python&lt;br&gt;&lt;/font&gt;" style="rounded=0;whiteSpace=wrap;html=1;" vertex="1" parent="1">
          <mxGeometry x="80" y="601" width="420" height="60" as="geometry" />
        </mxCell>
        <mxCell id="ayYl6s1Dmx4laIE9Qj4S-3" value="&lt;font style=&quot;font-size: 24px;&quot;&gt;Build-time libraries: *-dev, gcc.&lt;br&gt;&lt;/font&gt;" style="rounded=0;whiteSpace=wrap;html=1;dashed=1;dashPattern=8 8;" vertex="1" parent="1">
          <mxGeometry x="80" y="521" width="420" height="60" as="geometry" />
        </mxCell>
        <mxCell id="ayYl6s1Dmx4laIE9Qj4S-4" value="&lt;font style=&quot;font-size: 24px;&quot;&gt;Run-time libraries: openssl, gdal&lt;br&gt;&lt;/font&gt;" style="rounded=0;whiteSpace=wrap;html=1;" vertex="1" parent="1">
          <mxGeometry x="80" y="444.5" width="420" height="60" as="geometry" />
        </mxCell>
        <mxCell id="ayYl6s1Dmx4laIE9Qj4S-5" value="&lt;font style=&quot;font-size: 24px;&quot;&gt;R and Python packages: shiny&lt;br&gt;&lt;/font&gt;" style="rounded=0;whiteSpace=wrap;html=1;" vertex="1" parent="1">
          <mxGeometry x="80" y="361" width="420" height="60" as="geometry" />
        </mxCell>
        <mxCell id="ayYl6s1Dmx4laIE9Qj4S-6" value="&lt;font style=&quot;font-size: 24px;&quot;&gt;Shiny app code&lt;br&gt;&lt;/font&gt;" style="rounded=0;whiteSpace=wrap;html=1;" vertex="1" parent="1">
          <mxGeometry x="80" y="281" width="420" height="60" as="geometry" />
        </mxCell>
        <mxCell id="ayYl6s1Dmx4laIE9Qj4S-8" value="&lt;div align=&quot;left&quot;&gt;&lt;font style=&quot;font-size: 24px;&quot;&gt;Docker image&lt;/font&gt;&lt;/div&gt;" style="text;html=1;align=left;verticalAlign=middle;whiteSpace=wrap;rounded=0;" vertex="1" parent="1">
          <mxGeometry x="80" y="756" width="220" height="30" as="geometry" />
        </mxCell>
        <mxCell id="ayYl6s1Dmx4laIE9Qj4S-9" value="" style="rounded=0;whiteSpace=wrap;html=1;fillColor=none;dashed=1;dashPattern=8 8;" vertex="1" parent="1">
          <mxGeometry x="638" y="320" width="480" height="488" as="geometry" />
        </mxCell>
        <mxCell id="ayYl6s1Dmx4laIE9Qj4S-10" value="&lt;font style=&quot;font-size: 24px;&quot;&gt;Base image: Ubuntu&lt;br&gt;&lt;/font&gt;" style="rounded=0;whiteSpace=wrap;html=1;dashed=1;dashPattern=8 8;" vertex="1" parent="1">
          <mxGeometry x="668" y="692" width="420" height="48" as="geometry" />
        </mxCell>
        <mxCell id="ayYl6s1Dmx4laIE9Qj4S-11" value="&lt;font style=&quot;font-size: 24px;&quot;&gt;R, Python&lt;br&gt;&lt;/font&gt;" style="rounded=0;whiteSpace=wrap;html=1;dashed=1;dashPattern=8 8;" vertex="1" parent="1">
          <mxGeometry x="668" y="622" width="420" height="50" as="geometry" />
        </mxCell>
        <mxCell id="ayYl6s1Dmx4laIE9Qj4S-12" value="&lt;font style=&quot;font-size: 24px;&quot;&gt;Build-time libraries: *-dev, gcc.&lt;br&gt;&lt;/font&gt;" style="rounded=0;whiteSpace=wrap;html=1;dashed=1;dashPattern=8 8;" vertex="1" parent="1">
          <mxGeometry x="668" y="550" width="420" height="50" as="geometry" />
        </mxCell>
        <mxCell id="ayYl6s1Dmx4laIE9Qj4S-13" value="&lt;font style=&quot;font-size: 24px;&quot;&gt;Run-time libraries: openssl, gdal&lt;br&gt;&lt;/font&gt;" style="rounded=0;whiteSpace=wrap;html=1;dashed=1;dashPattern=8 8;" vertex="1" parent="1">
          <mxGeometry x="668" y="482" width="420" height="50" as="geometry" />
        </mxCell>
        <mxCell id="ayYl6s1Dmx4laIE9Qj4S-14" value="&lt;font style=&quot;font-size: 24px;&quot;&gt;R and Python packages: shiny&lt;br&gt;&lt;/font&gt;" style="rounded=0;whiteSpace=wrap;html=1;dashed=1;dashPattern=8 8;" vertex="1" parent="1">
          <mxGeometry x="668" y="412" width="420" height="50" as="geometry" />
        </mxCell>
        <mxCell id="ayYl6s1Dmx4laIE9Qj4S-15" value="&lt;font style=&quot;font-size: 24px;&quot;&gt;Document code&lt;br&gt;&lt;/font&gt;" style="rounded=0;whiteSpace=wrap;html=1;dashed=1;dashPattern=8 8;" vertex="1" parent="1">
          <mxGeometry x="668" y="340" width="420" height="50" as="geometry" />
        </mxCell>
        <mxCell id="ayYl6s1Dmx4laIE9Qj4S-16" value="&lt;div align=&quot;left&quot;&gt;&lt;font style=&quot;font-size: 24px;&quot;&gt;Builder stage&lt;/font&gt;&lt;/div&gt;" style="text;html=1;align=left;verticalAlign=middle;whiteSpace=wrap;rounded=0;" vertex="1" parent="1">
          <mxGeometry x="668" y="758" width="220" height="30" as="geometry" />
        </mxCell>
        <mxCell id="ayYl6s1Dmx4laIE9Qj4S-17" value="&lt;font style=&quot;font-size: 24px;&quot;&gt;Rendered content&lt;br&gt;&lt;/font&gt;" style="rounded=0;whiteSpace=wrap;html=1;" vertex="1" parent="1">
          <mxGeometry x="668" y="50" width="420" height="50" as="geometry" />
        </mxCell>
        <mxCell id="ayYl6s1Dmx4laIE9Qj4S-18" value="&lt;div align=&quot;left&quot;&gt;&lt;font style=&quot;font-size: 24px;&quot;&gt;Final stage&lt;/font&gt;&lt;/div&gt;" style="text;html=1;align=left;verticalAlign=middle;whiteSpace=wrap;rounded=0;" vertex="1" parent="1">
          <mxGeometry x="668" y="260" width="220" height="30" as="geometry" />
        </mxCell>
        <mxCell id="ayYl6s1Dmx4laIE9Qj4S-19" value="&lt;font style=&quot;font-size: 24px;&quot;&gt;Webserver: nginx&lt;br&gt;&lt;/font&gt;" style="rounded=0;whiteSpace=wrap;html=1;" vertex="1" parent="1">
          <mxGeometry x="668" y="120" width="420" height="50" as="geometry" />
        </mxCell>
        <mxCell id="ayYl6s1Dmx4laIE9Qj4S-20" value="&lt;font style=&quot;font-size: 24px;&quot;&gt;Base image: Alpine&lt;br&gt;&lt;/font&gt;" style="rounded=0;whiteSpace=wrap;html=1;" vertex="1" parent="1">
          <mxGeometry x="668" y="190" width="420" height="50" as="geometry" />
        </mxCell>
        <mxCell id="ayYl6s1Dmx4laIE9Qj4S-23" value="" style="endArrow=classic;html=1;rounded=0;entryX=0.75;entryY=1;entryDx=0;entryDy=0;exitX=0.75;exitY=0;exitDx=0;exitDy=0;curved=1;strokeWidth=2;" edge="1" parent="1" source="ayYl6s1Dmx4laIE9Qj4S-15" target="ayYl6s1Dmx4laIE9Qj4S-17">
          <mxGeometry width="50" height="50" relative="1" as="geometry">
            <mxPoint x="1020" y="340" as="sourcePoint" />
            <mxPoint x="1070" y="290" as="targetPoint" />
            <Array as="points">
              <mxPoint x="1050" y="220" />
            </Array>
          </mxGeometry>
        </mxCell>
      </root>
    </mxGraphModel>
  </diagram>
</mxfile>
